<svg width="98" height="23" viewBox="0 0 98 23" fill="none" xmlns="http://www.w3.org/2000/svg">
<path d="M7.08282 21.6163H0V0.313705H7.30716C9.45088 0.313705 11.2919 0.740173 12.8303 1.59311C14.3686 2.43911 15.5473 3.6561 16.3663 5.24408C17.1925 6.82513 17.6056 8.72169 17.6056 10.9338C17.6056 13.1528 17.1889 15.0598 16.3557 16.6547C15.5295 18.2496 14.333 19.477 12.7662 20.3369C11.1993 21.1898 9.30488 21.6163 7.08282 21.6163ZM3.30104 18.8078H6.90121C8.56776 18.8078 9.95298 18.5027 11.0569 17.8925C12.1608 17.2753 12.987 16.3842 13.5353 15.2193C14.0837 14.0473 14.3579 12.6188 14.3579 10.9338C14.3579 9.26258 14.0837 7.84449 13.5353 6.67951C12.9941 5.51452 12.1857 4.63038 11.1103 4.02709C10.0349 3.42379 8.69951 3.12215 7.10419 3.12215H3.30104V18.8078Z" fill="white"/>
<path d="M45.6443 21.9387C44.0276 21.9387 42.6352 21.6024 41.4672 20.9297C40.3063 20.2502 39.409 19.2967 38.7751 18.0693C38.1484 16.835 37.835 15.3891 37.835 13.7318C37.835 12.0953 38.1484 10.6529 38.7751 9.40473C39.409 8.15654 40.2921 7.18225 41.4245 6.48187C42.564 5.7815 43.8958 5.43131 45.4199 5.43131C46.3458 5.43131 47.2432 5.5804 48.112 5.87858C48.9809 6.17676 49.7608 6.64483 50.4516 7.2828C51.1425 7.92077 51.6873 8.74943 52.0861 9.76879C52.485 10.7812 52.6844 12.0121 52.6844 13.4614V14.5639H39.6404V12.234H49.5543C49.5543 11.4157 49.3833 10.6911 49.0415 10.06C48.6996 9.42207 48.2189 8.91933 47.5993 8.5518C46.9868 8.18428 46.2675 8.00051 45.4413 8.00051C44.5439 8.00051 43.7605 8.21548 43.091 8.64542C42.4287 9.06842 41.9159 9.62317 41.5527 10.3097C41.1966 10.9893 41.0185 11.7278 41.0185 12.5252V14.3455C41.0185 15.4134 41.2108 16.3218 41.5954 17.0707C41.9871 17.8197 42.532 18.3917 43.2299 18.787C43.9279 19.1753 44.7433 19.3695 45.6763 19.3695C46.2817 19.3695 46.8337 19.2863 47.3322 19.1199C47.8307 18.9465 48.2616 18.6899 48.6248 18.3501C48.9881 18.0104 49.2658 17.5908 49.4581 17.0915L52.4814 17.622C52.2392 18.4888 51.8048 19.2482 51.1781 19.9C50.5585 20.5449 49.7786 21.0476 48.8385 21.4082C47.9055 21.7619 46.8408 21.9387 45.6443 21.9387Z" fill="white"/>
<path d="M68.2917 5.63934L62.3413 21.6163H58.9227L52.9616 5.63934H56.3908L60.5465 17.9341H60.7174L64.8624 5.63934H68.2917Z" fill="white"/>
<path d="M76.3034 21.9387C74.6867 21.9387 73.2943 21.6024 72.1263 20.9297C70.9655 20.2502 70.0681 19.2967 69.4342 18.0693C68.8075 16.835 68.4941 15.3891 68.4941 13.7318C68.4941 12.0953 68.8075 10.6529 69.4342 9.40473C70.0681 8.15654 70.9512 7.18225 72.0836 6.48187C73.2231 5.7815 74.5549 5.43131 76.079 5.43131C77.0049 5.43131 77.9023 5.5804 78.7712 5.87858C79.64 6.17676 80.4199 6.64483 81.1107 7.2828C81.8016 7.92077 82.3464 8.74943 82.7452 9.76879C83.1441 10.7812 83.3435 12.0121 83.3435 13.4614V14.5639H70.2995V12.234H80.2134C80.2134 11.4157 80.0424 10.6911 79.7006 10.06C79.3587 9.42207 78.878 8.91933 78.2584 8.5518C77.6459 8.18428 76.9266 8.00051 76.1004 8.00051C75.203 8.00051 74.4196 8.21548 73.7501 8.64542C73.0878 9.06842 72.575 9.62317 72.2118 10.3097C71.8557 10.9893 71.6777 11.7278 71.6777 12.5252V14.3455C71.6777 15.4134 71.8699 16.3218 72.2545 17.0707C72.6462 17.8197 73.1911 18.3917 73.889 18.787C74.587 19.1753 75.4025 19.3695 76.3354 19.3695C76.9408 19.3695 77.4928 19.2863 77.9913 19.1199C78.4898 18.9465 78.9207 18.6899 79.2839 18.3501C79.6472 18.0104 79.9249 17.5908 80.1172 17.0915L83.1405 17.622C82.8983 18.4888 82.4639 19.2482 81.8372 19.9C81.2176 20.5449 80.4377 21.0476 79.4976 21.4082C78.5646 21.7619 77.4999 21.9387 76.3034 21.9387Z" fill="white"/>
<path d="M97.6795 9.53996L94.7844 10.0392C94.6633 9.67865 94.4711 9.33539 94.2075 9.00947C93.9512 8.68355 93.6022 8.41658 93.1606 8.20855C92.719 8.00051 92.1671 7.8965 91.5047 7.8965C90.6003 7.8965 89.8453 8.09413 89.24 8.48939C88.6346 8.87772 88.3319 9.38047 88.3319 9.99763C88.3319 10.5316 88.5349 10.9615 88.9408 11.2874C89.3468 11.6133 90.002 11.8803 90.9065 12.0884L93.5131 12.6708C95.023 13.0106 96.1483 13.5342 96.889 14.2415C97.6297 14.9488 98 15.8676 98 16.9979C98 17.9549 97.7151 18.8078 97.1454 19.5567C96.5827 20.2987 95.7957 20.8812 94.7844 21.3042C93.7802 21.7272 92.6158 21.9387 91.2911 21.9387C89.4536 21.9387 87.9544 21.5573 86.7935 20.7945C85.6327 20.0248 84.9205 18.9326 84.6569 17.518L87.7443 17.0603C87.9366 17.8439 88.3319 18.4368 88.9301 18.839C89.5284 19.2343 90.3083 19.4319 91.2697 19.4319C92.3167 19.4319 93.1535 19.2204 93.7802 18.7974C94.407 18.3675 94.7203 17.8439 94.7203 17.2268C94.7203 16.7275 94.528 16.308 94.1434 15.9682C93.766 15.6284 93.1855 15.3718 92.4021 15.1984L89.6245 14.6056C88.0933 14.2658 86.9609 13.7249 86.2273 12.9829C85.5009 12.2409 85.1377 11.3013 85.1377 10.1641C85.1377 9.22097 85.4083 8.39578 85.9496 7.68847C86.4909 6.98115 87.2387 6.42987 88.193 6.03461C89.1474 5.63241 90.2406 5.43131 91.4727 5.43131C93.2461 5.43131 94.642 5.80577 95.6604 6.55469C96.6789 7.29667 97.3519 8.29176 97.6795 9.53996Z" fill="white"/>
<g clip-path="url(#clip0_1_16)">
<path d="M27.4782 8.9098L27.5925 6.88575C26.5943 6.99697 25.2504 7.43802 24.4809 8.20747C22.9722 9.71617 22.729 12.0072 23.7548 13.7487L21.0431 15.3652C19.3119 12.4306 19.7205 8.57143 22.2626 6.02934C23.6795 4.61235 25.8776 3.85565 27.7252 3.76621L27.8345 1.84449L33.1856 5.60085L27.4782 8.9098ZM28.2803 15.7377C29.2785 15.6265 30.6224 15.1854 31.3918 14.416C32.9005 12.9073 33.1437 10.6163 32.118 8.87472L34.8307 7.25936C36.5631 10.1928 36.1534 14.0532 33.6113 16.5952C32.1943 18.0122 29.9963 18.7689 28.1487 18.8584L28.0394 20.7801L22.6871 17.0226L28.3945 13.7137L28.2803 15.7377Z" fill="white"/>
</g>
<defs>
<clipPath id="clip0_1_16">
<rect width="16" height="16" fill="white" transform="translate(16.6863 11.3137) rotate(-45)"/>
</clipPath>
</defs>
</svg>
